<svg width="254" height="456" viewBox="0 0 254 456" fill="none" xmlns="http://www.w3.org/2000/svg">
<path d="M108 409H144L148.5 451H102.64L108 409Z" fill="#777777"/>
<path d="M87.7391 409H95L86 451H78L87.7391 409Z" fill="#434343"/>
<path d="M156.5 409H164.524L174 451H164.524L156.5 409Z" fill="#434343"/>
<path d="M144 409H156.5L164.523 451H148.5L144 409Z" fill="#5F5F5F"/>
<path d="M95 409H108L102.641 451H86L95 409Z" fill="#5F5F5F"/>
<path d="M70 355H117V398H75L70 355Z" fill="#4D4D4D"/>
<path d="M137 355H183L178 398H137V355Z" fill="#4D4D4D"/>
<path d="M76 235H117V260H79L76 235Z" fill="#383838"/>
<path d="M137 235H178L173.5 260H137V235Z" fill="#383838"/>
<path d="M77 398H176L170.305 409H82.6947L77 398Z" fill="#3E3E3E"/>
<rect x="70" y="350" width="35" height="5" fill="#5E5E5E"/>
<rect x="148" y="350" width="35" height="5" fill="#5E5E5E"/>
<rect x="105" y="350" width="43" height="5" fill="#5E5E5E"/>
<rect x="81" y="451" width="11" height="5" fill="#515151"/>
<rect x="161" y="451" width="11" height="5" fill="#515151"/>
<rect x="118" y="451" width="16" height="5" fill="#515151"/>
<rect x="79" y="260" width="26" height="90" fill="#3D3D3D"/>
<rect x="148" y="260" width="25" height="90" fill="#3D3D3D"/>
<rect x="105" y="260" width="43" height="90" fill="#923600"/>
<rect x="117" y="355" width="20" height="43" fill="#923600"/>
<path d="M173 141L198 149.323V221.292L173 235V141Z" fill="#923600"/>
<path d="M79 141L56 149.323V221.292L79 235V141Z" fill="#923600"/>
<rect x="113" y="280" width="28" height="59" fill="#2D2D2D"/>
<rect x="117" y="141" width="20" height="94" fill="#434343"/>
<path d="M137 141H154V235H137V141Z" fill="#2D2D2D"/>
<path d="M117 141H100V235H117V141Z" fill="#2D2D2D"/>
<rect x="117" y="235" width="20" height="25" fill="#923600"/>
<rect x="154" y="141" width="25" height="94" fill="#3B3B3B"/>
<rect x="76" y="141" width="24" height="94" fill="#3B3B3B"/>
<path d="M202 162L202 155L213 157L213 162L202 162Z" fill="#3E3E3E"/>
<path d="M202 208L202 215L213 213L213 208L202 208Z" fill="#3E3E3E"/>
<rect x="214" y="177" width="40" height="5" fill="#424242"/>
<rect x="216" y="172" width="16" height="5" fill="#424242"/>
<rect x="231" y="182" width="3" height="6" fill="#424242"/>
<rect x="223.042" y="180" width="3" height="7.50941" transform="rotate(30.4709 223.042 180)" fill="#424242"/>
<rect x="198" y="186" width="38" height="11" fill="#565656"/>
<rect x="198" y="153" width="4" height="65" fill="#434242"/>
<path d="M52 161L52 154L41 156L41 161L52 161Z" fill="#3E3E3E"/>
<path d="M52 207L52 214L41 212L41 207L52 207Z" fill="#3E3E3E"/>
<rect width="40" height="5" transform="matrix(-1 0 0 1 40 176)" fill="#424242"/>
<rect width="16" height="5" transform="matrix(-1 0 0 1 38 171)" fill="#424242"/>
<rect width="3" height="6" transform="matrix(-1 0 0 1 23 181)" fill="#424242"/>
<rect width="3" height="7.50941" transform="matrix(-0.861887 0.507101 0.507101 0.861887 30.9575 179)" fill="#424242"/>
<rect width="38" height="11" transform="matrix(-1 0 0 1 56 185)" fill="#565656"/>
<rect width="4" height="65" transform="matrix(-1 0 0 1 56 152)" fill="#434242"/>
<path d="M141 0L152.878 34.2442L174.5 97.5L175.5 141H141V0Z" fill="#6D6D6D"/>
<path d="M113 0V141H78.5V97L101.619 34.5972L113 0Z" fill="#6D6D6D"/>
<path d="M141 23L152.234 38.6112L173 97.7529V125.236L168.574 130.127V141H141V23Z" fill="#343434"/>
<path d="M113 23L101.766 38.6112L81 97.7529V125.236L85.4255 130.127V141H113V23Z" fill="#343434"/>
<rect x="113" y="23" width="28" height="70" fill="#6F6F6F"/>
<rect x="113" width="28" height="23" fill="#4B4A4A"/>
<rect x="113" y="93" width="28" height="48" fill="#4B4A4A"/>
</svg>
